<svg width="8" height="9" viewBox="0 0 8 9" fill="none" xmlns="http://www.w3.org/2000/svg">
<path d="M0.92809 9V7.67045L4.03462 4.79403C4.29883 4.53835 4.52042 4.30824 4.6994 4.10369C4.88121 3.89915 5.019 3.69886 5.11275 3.50284C5.2065 3.30398 5.25337 3.08949 5.25337 2.85938C5.25337 2.60369 5.19514 2.38352 5.07866 2.19886C4.96218 2.01136 4.80309 1.8679 4.60139 1.76847C4.39968 1.66619 4.17099 1.61506 3.91531 1.61506C3.64826 1.61506 3.41531 1.66903 3.21644 1.77699C3.01758 1.88494 2.86417 2.03977 2.75621 2.24148C2.64826 2.44318 2.59428 2.68324 2.59428 2.96165H0.842862C0.842862 2.39062 0.972124 1.89489 1.23065 1.47443C1.48917 1.05398 1.85138 0.728693 2.31729 0.498579C2.7832 0.268466 3.32013 0.153409 3.92809 0.153409C4.55309 0.153409 5.09712 0.264204 5.56019 0.485795C6.0261 0.704545 6.38832 1.00852 6.64684 1.39773C6.90536 1.78693 7.03462 2.23295 7.03462 2.7358C7.03462 3.06534 6.96928 3.39062 6.8386 3.71165C6.71076 4.03267 6.48207 4.3892 6.15252 4.78125C5.82298 5.17045 5.35849 5.63778 4.75906 6.18324L3.48491 7.43182V7.49148H7.14968V9H0.92809Z" fill="#4B5563"/>
</svg>
