<svg width="8" height="10" viewBox="0 0 8 10" fill="none" xmlns="http://www.w3.org/2000/svg">
<path d="M3.97816 9.11932C3.3418 9.11932 2.77504 9.00994 2.27788 8.79119C1.78356 8.5696 1.39293 8.26562 1.106 7.87926C0.821911 7.49006 0.675604 7.04119 0.667081 6.53267H2.52504C2.5364 6.74574 2.606 6.93324 2.73384 7.09517C2.86452 7.25426 3.03782 7.37784 3.25373 7.46591C3.46964 7.55398 3.71254 7.59801 3.98242 7.59801C4.26367 7.59801 4.51225 7.5483 4.72816 7.44886C4.94407 7.34943 5.1131 7.21165 5.23526 7.03551C5.35742 6.85937 5.4185 6.65625 5.4185 6.42614C5.4185 6.19318 5.35316 5.98722 5.22248 5.80824C5.09464 5.62642 4.90998 5.48437 4.6685 5.3821C4.42987 5.27983 4.14577 5.22869 3.81623 5.22869H3.00231V3.87358H3.81623C4.09464 3.87358 4.34038 3.82528 4.55344 3.72869C4.76935 3.6321 4.93697 3.49858 5.05629 3.32812C5.1756 3.15483 5.23526 2.95312 5.23526 2.72301C5.23526 2.50426 5.18271 2.3125 5.07759 2.14773C4.97532 1.98011 4.83043 1.84943 4.64293 1.75568C4.45827 1.66193 4.24237 1.61506 3.99521 1.61506C3.74521 1.61506 3.51651 1.66051 3.30913 1.75142C3.10174 1.83949 2.93555 1.96591 2.81055 2.13068C2.68555 2.29545 2.61879 2.48864 2.61026 2.71023H0.841797C0.85032 2.20739 0.993786 1.7642 1.27219 1.38068C1.5506 0.997159 1.9256 0.697443 2.39719 0.481534C2.87163 0.262784 3.40714 0.153409 4.00373 0.153409C4.606 0.153409 5.13299 0.262784 5.58469 0.481534C6.0364 0.700284 6.38725 0.995738 6.63725 1.3679C6.89009 1.73722 7.01509 2.15199 7.01225 2.61222C7.01509 3.10085 6.8631 3.50852 6.55629 3.83523C6.25231 4.16193 5.856 4.36932 5.36737 4.45739V4.52557C6.00941 4.60795 6.49805 4.83097 6.83327 5.1946C7.17134 5.5554 7.33896 6.0071 7.33612 6.54972C7.33896 7.04688 7.19549 7.48864 6.90572 7.875C6.61879 8.26136 6.22248 8.56534 5.7168 8.78693C5.21112 9.00852 4.63157 9.11932 3.97816 9.11932Z" fill="#4B5563"/>
</svg>
