<svg width="413" height="260" viewBox="0 0 413 260" fill="none" xmlns="http://www.w3.org/2000/svg">
<rect width="413" height="260" fill="#E5E5E5"/>
<g id="Solicitar Contrata&#195;&#167;&#195;&#163;o de Docente - Parte 1" clip-path="url(#clip0_612_2)">
<rect width="1366" height="941" transform="translate(-666 -469)" fill="#F2F7F8"/>
<rect id="Rectangle 1915" x="-666" y="-469" width="1366" height="941" fill="black" fill-opacity="0.5"/>
<path id="Rectangle 1916" d="M-665 -352H610V461.2C610 466.612 605.612 471 600.2 471H-655.2C-660.612 471 -665 466.612 -665 461.2V-352Z" fill="#F2F7F8"/>
<rect id="Rectangle 1721" x="-566" y="-159" width="1077" height="593" rx="4" fill="white"/>
<g id="Handshake_Monochromatic 1" clip-path="url(#clip1_612_2)">
<path id="Vector" opacity="0.18" d="M412.9 184.249C412.492 192.275 410.445 200.132 406.884 207.333C401.079 218.89 392.045 228.331 381.353 235.632C375.388 239.676 369.016 243.083 362.343 245.797C358.67 247.303 354.922 248.618 351.114 249.736C328.054 256.5 303.721 256.831 279.718 257.113L110.788 259.082L88.5705 259.339C81.5021 259.424 74.2984 259.474 67.1698 259.082C53.5694 258.349 40.2197 256.022 28.5142 249.324C22.4844 245.855 17.2184 241.197 13.0339 235.632C5.09827 225.135 0.807097 211.75 0.601562 198.409V197.007C0.686784 183.988 4.69722 171.15 13.0339 161.126C13.5653 160.492 14.1067 159.864 14.6732 159.256C15.8513 157.98 17.1396 156.744 18.4931 155.508C27.1106 147.715 38.4902 140.73 43.6486 130.691C52.7222 113.024 41.4078 105.814 39.9189 88.4833C37.4124 59.34 66.849 25.8503 90.7612 12.4795C116.473 -1.93132 148.857 -3.65982 175.958 7.90204C204.633 20.1422 231.392 46.7983 261.641 39.2814C271.366 36.8645 280.3 30.9152 290.321 30.7393C308.839 30.3826 321.692 49.2604 327.457 66.9173C333.222 84.5741 336.35 104.502 350.056 116.999C359.892 125.963 373.452 129.334 385.363 135.289C388.981 137.047 392.406 139.177 395.585 141.645C402.603 147.202 407.426 154.744 410.203 163.125C412.407 169.937 413.322 177.101 412.9 184.249V184.249Z" fill="#105FF9"/>
<path id="Vector_2" opacity="0.18" d="M381.458 235.798C372.169 242.042 361.967 246.798 351.219 249.897C329.663 256.223 306.999 256.932 284.545 257.213L279.838 257.273L217.817 258.002L186.315 258.374L116.197 259.193L110.878 259.253L88.6556 259.514C81.5872 259.6 74.3884 259.645 67.2549 259.253C53.6394 258.54 40.2897 256.213 28.5742 249.535C22.5666 246.052 17.3246 241.386 13.1641 235.818L381.458 235.798Z" fill="#105FF9"/>
<path id="Vector_3" opacity="0.05" d="M313.1 247.083C313.245 249.178 311.761 251.203 312.182 253.259C312.804 256.273 316.238 255.771 319.316 255.545C326.795 254.932 336.36 253.786 343.644 251.902C350.387 250.153 355.294 248.465 361.721 246.375C362.223 246.209 362.067 244.782 362.092 244.254C362.132 243.556 361.21 243.295 360.513 243.249C354.157 243.043 347.73 243.249 341.494 241.993C338.691 241.42 335.944 240.546 333.102 240.219C329.593 239.822 326.083 240.255 322.574 239.988C320.033 239.792 313.842 237.004 311.48 238.149C307.941 239.903 312.924 244.551 313.1 247.083Z" fill="#000405"/>
<path id="Vector_4" opacity="0.05" d="M165.821 248.973C173.165 251.038 179.106 255.409 185.573 258.796C162.198 259.064 138.826 259.335 115.455 259.61C117.416 257.736 119.605 256.118 121.972 254.796C129.657 250.485 138.686 249.49 147.438 248.576C153.554 247.933 159.876 247.304 165.821 248.973Z" fill="#000405"/>
<path id="Vector_5" opacity="0.05" d="M285.027 255.163C284.921 255.834 284.633 256.463 284.195 256.982C284.04 257.184 283.909 257.403 283.804 257.635L279.097 257.695L217.065 258.409C218.19 257.534 219.21 256.53 220.103 255.419C221.397 253.811 222.429 251.987 223.933 250.59C228.375 246.46 235.408 247.229 241.163 249.083C242.913 249.656 244.672 250.309 246.517 250.284C249.786 250.244 252.593 248.113 255.541 246.646C264.8 242.013 277.057 244.495 283.794 252.369C284.456 253.183 285.113 254.128 285.027 255.163Z" fill="#000405"/>
<path id="Vector_6" d="M251.941 184.716L240.476 241.249L232.771 240.365L231.884 240.259C231.884 240.259 234.09 223.507 235.042 199.614C235.669 183.787 238.371 170.863 239.664 160.12C240.066 157.161 240.737 154.244 241.669 151.407C243.233 146.654 245.615 142.207 248.642 142.664C255.33 143.669 264.138 149.463 265.301 153.091C267.326 159.422 251.941 184.716 251.941 184.716Z" fill="#25233A"/>
<path id="Vector_7" opacity="0.24" d="M243.925 151.554C243.925 151.554 238.786 191.455 238.621 203.901C238.455 216.347 233.347 240.26 233.347 240.26L232.755 240.365L231.868 240.26C231.868 240.26 234.074 223.507 235.026 199.615C235.653 183.787 238.355 170.864 239.648 160.121C240.05 157.161 240.721 154.245 241.654 151.408C242.414 151.368 243.176 151.417 243.925 151.554V151.554Z" fill="white"/>
<path id="Vector_8" d="M278.225 241.159H269.702V241.109C269.472 239.958 265.191 218.703 259.14 203.308C254.628 191.826 252.448 168.441 251.62 156.472C251.29 151.95 251.159 149.056 251.159 149.056C251.159 149.056 268.464 143.936 270.71 146.207C272.956 148.478 275.508 158.769 275.508 158.769C275.508 158.769 269.582 199.519 273.352 202.283C277.122 205.046 278.225 241.159 278.225 241.159Z" fill="#3F3D56"/>
<path id="Vector_9" d="M143.374 78.2881C143.374 78.2881 130.771 82.1822 125.668 118.642C123.823 131.786 135.553 155.005 135.553 155.005L143.374 78.2881Z" fill="#105FF9"/>
<path id="Vector_10" d="M143.374 78.2881C143.374 78.2881 130.771 82.1822 125.668 118.642C123.823 131.786 135.553 155.005 135.553 155.005L143.374 78.2881Z" fill="url(#paint0_linear_612_2)"/>
<path id="Vector_11" d="M134.169 150.453C133.396 150.327 132.605 150.387 131.859 150.628C131.114 150.87 130.437 151.286 129.884 151.842C129.332 152.398 128.919 153.078 128.681 153.825C128.443 154.573 128.386 155.367 128.515 156.141C129.477 161.839 131.312 169.748 134.53 174.23C139.964 181.732 147.384 192.083 147.384 192.083L155.054 244.842L164.513 243.561L164.428 193.002L153.75 153.694L134.169 150.453Z" fill="#25233A"/>
<path id="Vector_12" d="M153.725 153.694L152.497 197.61L132.219 244.877L125.426 241.998L123.451 241.149L134.68 196.831C134.68 196.831 130.309 184.772 127.091 175.978C124.003 167.542 128.204 150.825 128.554 149.478V149.388L153.725 153.694Z" fill="#3F3D56"/>
<path id="Vector_13" d="M237.694 125.606L212.674 138.037L208.002 132.073L206.804 130.535L228.179 118.893C228.179 118.893 235.523 102.527 237.118 95.0054C237.423 93.6085 237.729 92.493 238.015 91.5333C238.571 89.7897 243.88 83.6294 245.665 83.2626C247.45 82.8958 245.439 88.3929 246.627 89.7948C247.932 91.7172 248.598 94.0029 248.532 96.3269C248.738 101 237.694 125.606 237.694 125.606Z" fill="#105FF9"/>
<path id="Vector_14" d="M270.704 140.163C270.704 140.163 258.277 155.132 243.95 151.569C242.963 151.32 241.998 150.994 241.062 150.594C239.845 150.068 238.885 149.08 238.393 147.847C237.901 146.613 237.916 145.234 238.435 144.012V143.982C239.819 140.836 239.859 136.289 239.734 132.093C239.443 122.441 237.007 111.994 236.826 107.648C236.706 104.869 237.152 100.935 237.969 97.0057C239.408 90.0213 241.979 83.0621 244.641 82.6601C252.482 81.4492 255.169 83.5897 255.169 83.5897L268.554 91.383C275.216 98.3473 271.978 109.281 270.704 140.163Z" fill="#105FF9"/>
<path id="Vector_15" d="M251.059 100.739L254.482 106.266L245.003 115.878L243.053 117.858L253.355 82.8606L253.395 79.3584L254.703 80.7V80.705L256.418 82.4637L257.074 96.9549L251.059 100.739Z" fill="#105FF9"/>
<path id="Vector_16" d="M269.432 108.994L267.978 146.725C267.978 146.725 247.525 156.468 244.823 145.519C242.732 137.057 248.081 127.405 248.081 127.405L269.432 108.994Z" fill="url(#paint1_linear_612_2)"/>
<path id="Vector_17" d="M249.289 129.917L243.138 154.744L281.147 162.563L286.611 138.273L249.289 129.917Z" fill="white"/>
<path id="Vector_18" d="M253.66 73.8213C253.66 73.9318 253.525 79.5545 253.329 83.1321C253.189 85.9007 251.895 87.8503 249.92 89.7798C248.773 90.9812 247.393 91.9352 245.865 92.5836C245.331 92.7802 244.741 92.7568 244.224 92.5186C243.708 92.2803 243.306 91.8466 243.108 91.3123C242.957 90.8926 242.938 90.4368 243.052 90.0059C243.248 89.2622 243.443 88.398 243.594 87.4935C243.915 85.6294 244.055 83.6094 243.549 82.1824C243.535 82.1296 243.518 82.0776 243.499 82.0266C243.198 81.288 243.499 80.4841 244.18 79.6751C245.138 78.5345 246.812 77.3788 248.482 76.404C250.157 75.4451 251.886 74.5828 253.66 73.8213V73.8213Z" fill="url(#paint2_linear_612_2)"/>
<path id="Vector_19" d="M244.687 87.1121C244.343 87.2838 243.979 87.4121 243.604 87.4939C243.925 85.6298 244.065 83.6099 243.559 82.1828L244.19 79.6705L244.666 77.8013L248.491 76.3994L252.367 74.9824C251.434 81.8964 247.744 85.6599 244.687 87.1121Z" fill="url(#paint3_linear_612_2)"/>
<path id="Vector_20" d="M243.634 54.1751C242.188 54.264 240.774 54.6376 239.473 55.2744C238.171 55.9112 237.007 56.7987 236.048 57.8864C235.088 58.974 234.352 60.2404 233.881 61.6133C233.41 62.9862 233.213 64.4386 233.302 65.8877V65.8877C233.311 66.1724 233.339 66.4561 233.387 66.7368C233.737 71.2295 234.895 75.6216 236.806 79.7006C240.411 85.8307 249.464 80.7558 250.893 78.2233C252.322 75.6909 257.711 64.2345 255.435 60.9835C253.931 58.7224 249.509 53.9037 243.634 54.1751Z" fill="url(#paint4_linear_612_2)"/>
<path id="Vector_21" d="M234.05 49.8538L235.914 50.8085C234.803 50.786 233.702 51.0285 232.702 51.5159C231.703 52.0034 230.833 52.7219 230.164 53.6123C228.461 55.3249 227.497 57.6405 227.482 60.059L230.646 58.5516C230.646 58.5516 230.41 62.4659 236.406 62.7523C242.401 63.0387 248.748 63.2547 248.748 63.2547L246.712 60.4359C246.712 60.4359 250.442 61.9433 251.094 63.305C251.691 65.5169 252.121 67.7711 252.377 70.0481C252.377 70.0481 253.856 66.1841 254.473 67.0333C255.089 67.8825 253.831 71.3797 253.054 72.1485C252.277 72.9173 252.407 75.2186 252.337 75.4095C252.267 75.6005 256.052 72.4399 256.217 71.3546C256.383 70.2692 260.132 59.2953 257.671 57.004L259.175 56.8884C258.293 56.2911 257.286 55.9027 256.232 55.7528C256.232 55.7528 246.357 42.8494 234.05 49.8538Z" fill="#3F3D56"/>
<path id="Vector_22" d="M195.078 135.68C196.718 134.245 198.512 132.996 200.427 131.957C201.928 131.426 203.495 131.101 205.084 130.992C205.084 130.992 205.344 133.188 204.081 133.334C202.818 133.479 201.765 135.404 201.765 135.404C201.765 135.404 209.871 138.73 210.989 138.419C212.107 138.107 211.886 139.725 209.836 139.62C207.786 139.514 207.284 142.388 205.866 142.348C204.447 142.308 202.201 143.187 200.116 143.263C198.008 143.087 195.937 142.603 193.97 141.825L195.078 135.68Z" fill="url(#paint5_linear_612_2)"/>
<path id="Vector_23" d="M163.706 112.361L156.909 150.659C156.909 150.659 154.562 157.99 142.421 156.895C137.982 156.526 133.803 154.641 130.585 151.554V151.554L130.39 151.368L130.254 151.227C127.929 148.921 126.107 146.156 124.905 143.107C124.905 143.107 132.706 89.0763 140.897 79.7002C141.714 78.7656 142.531 78.2682 143.353 78.3134C145.596 78.61 147.739 79.4292 149.61 80.7051C154.865 83.946 159.023 88.7016 161.538 94.3497C164.053 99.9977 164.809 106.275 163.706 112.361V112.361Z" fill="#105FF9"/>
<path id="Vector_24" d="M150.927 111.079L142.405 156.889C142.405 156.889 155.464 158.688 156.893 150.659L160.903 127.359L150.927 111.079Z" fill="url(#paint6_linear_612_2)"/>
<path id="Vector_25" d="M143.373 78.2883C143.373 78.2883 144.671 68.4348 145.193 62.0283C145.714 55.6218 147.8 47.0396 158.527 48.14C169.255 49.2404 169.291 65.4954 166.328 72.2989C163.365 79.1023 159.415 78.9063 159.415 78.9063C159.415 78.9063 154.071 77.7406 154.271 84.1823L143.373 78.2883Z" fill="url(#paint7_linear_612_2)"/>
<path id="Vector_26" d="M147.333 46.7778C145.771 48.2822 144.644 50.1814 144.07 52.2748C143.588 53.9716 143.263 55.709 143.097 57.4653L144.19 56.2644C144.136 59.271 143.913 62.2721 143.523 65.2536C143.116 68.0311 142.948 70.8386 143.022 73.6449L145.027 73.5444L147.534 76.6296L150.301 74.7503L152.396 73.67L154.251 69.0774C153.79 68.7448 153.452 68.2689 153.289 67.7237C153.126 67.1785 153.147 66.5946 153.349 66.0626C154.03 64.1884 155.725 63.7563 156.121 64.8617C156.423 66.239 156.591 67.6424 156.622 69.0523L159.58 60.656C159.58 60.656 161.435 58.0482 163.059 59.842C164.033 60.9281 165.264 61.7507 166.638 62.2338L165.636 59.4601L168.318 60.1485L168.107 56.9427L170.112 58.3446C170.112 58.3446 170.99 53.1541 169.29 50.8528C167.591 48.5515 160.833 39.3311 147.333 46.7778Z" fill="#3F3D56"/>
<path id="Vector_27" d="M195.304 134.64L193.945 141.836L193.579 143.77L169.11 141.941C162.338 141.358 155.691 136.716 154.848 129.927L146.381 99.9649C146 98.7364 145.935 97.431 146.194 96.1707C146.452 94.9104 147.026 93.7365 147.86 92.7586C148.694 91.7808 149.762 91.0311 150.964 90.5795C152.166 90.128 153.463 89.9894 154.733 90.1768C156.345 90.4185 157.857 91.1083 159.098 92.1678C160.338 93.2274 161.258 94.6144 161.751 96.1713L167.08 122.988C167.39 124.567 168.147 126.023 169.261 127.182C170.375 128.34 171.799 129.152 173.362 129.52L195.304 134.64Z" fill="#105FF9"/>
<path id="Vector_28" d="M208.001 132.067L204.592 133.133C204.592 133.133 200.331 133.514 198.912 134.73C197.494 135.946 198.286 136.494 198.286 136.494C198.286 136.494 202.798 135.831 203.77 136.208C204.743 136.585 209.5 138.479 211.004 138.454C212.508 138.429 212.673 138.037 212.673 138.037L208.001 132.067Z" fill="url(#paint8_linear_612_2)"/>
<path id="Vector_29" d="M197.72 141.001C197.971 140.777 198.27 140.615 198.595 140.528C198.92 140.441 199.26 140.431 199.589 140.499C199.663 140.512 199.732 140.547 199.785 140.6C199.817 140.661 199.834 140.729 199.834 140.798C199.834 140.867 199.817 140.935 199.785 140.996C199.559 141.762 199.199 142.482 198.722 143.122C199.254 142.941 199.499 142.348 199.835 141.901C200.088 141.565 200.413 141.291 200.786 141.098C201.16 140.905 201.571 140.798 201.991 140.785C202.091 140.776 202.193 140.797 202.281 140.846C202.487 140.986 202.397 141.308 202.281 141.534C202.071 141.956 201.865 142.383 201.655 142.81C202.187 142.041 202.802 141.333 203.49 140.7C203.654 140.524 203.861 140.394 204.091 140.323C204.207 140.287 204.331 140.295 204.442 140.344C204.552 140.393 204.641 140.48 204.693 140.589C204.738 140.723 204.738 140.868 204.693 141.001C204.548 141.583 204.293 142.13 203.941 142.614C204.364 141.914 204.896 141.285 205.515 140.75C205.559 140.698 205.614 140.658 205.677 140.632C205.74 140.607 205.808 140.597 205.876 140.605C205.952 140.63 206.015 140.684 206.051 140.755C206.262 141.107 206.051 141.554 205.831 141.906C205.425 142.554 204.908 143.248 204.151 143.363C203.981 143.373 203.813 143.403 203.65 143.454C203.534 143.513 203.424 143.586 203.324 143.67C203.064 143.849 202.756 143.949 202.44 143.956C202.124 143.963 201.813 143.877 201.545 143.71C201.179 143.942 200.753 144.063 200.32 144.056C199.887 144.048 199.466 143.914 199.108 143.67C199.026 143.598 198.923 143.554 198.815 143.546C198.706 143.538 198.598 143.565 198.507 143.624C198.18 143.736 197.828 143.743 197.497 143.645C197.167 143.547 196.875 143.348 196.662 143.077C196.211 142.434 197.223 141.434 197.72 141.001Z" fill="url(#paint9_linear_612_2)"/>
<path id="Vector_30" d="M271.176 153.508L262.804 150.609L262.518 150.508L268.619 130.852C268.619 130.852 260.598 108.743 259.265 101.975C258.834 99.7242 258.814 97.4141 259.205 95.1562C259.401 93.9834 259.946 92.8975 260.769 92.041C261.592 91.1846 262.655 90.5978 263.817 90.3576C265.116 90.0704 266.475 90.2482 267.657 90.8601C268.701 91.4021 269.706 92.0166 270.665 92.6992C271.433 93.2592 271.979 94.0748 272.204 95.0005C273.707 101.191 279.758 126.445 279.984 128.842C280.229 131.59 271.176 153.508 271.176 153.508Z" fill="#105FF9"/>
<path id="Vector_31" d="M260.332 152.277C259.921 152.669 259.53 153.372 259.966 153.744C260.071 153.835 260.217 153.885 260.302 153.995C260.513 154.262 260.252 154.634 260.011 154.87L258.006 156.824C257.264 157.543 256.457 158.442 256.628 159.462C256.711 159.825 256.889 160.159 257.145 160.428C257.401 160.698 257.724 160.894 258.081 160.995C258.801 161.183 259.557 161.174 260.272 160.97C260.26 161.181 260.31 161.392 260.416 161.575C260.522 161.758 260.679 161.906 260.869 162C261.253 162.179 261.668 162.282 262.092 162.301C263.314 162.519 264.568 162.485 265.776 162.201C265.867 162.337 265.957 162.467 266.052 162.598C267.636 162.316 268.498 160.618 269.06 159.111C269.621 157.603 270.193 155.925 270.674 154.302C270.764 154.084 270.78 153.842 270.719 153.614C270.644 153.479 270.542 153.362 270.42 153.27C270.297 153.177 270.157 153.111 270.007 153.076C268.092 152.347 266.182 151.604 264.262 150.885C262.488 150.222 261.681 151.016 260.332 152.277Z" fill="url(#paint10_linear_612_2)"/>
<path id="Vector_32" d="M251.059 100.739L254.482 106.266L245.003 115.878L243.053 117.858L253.355 82.8606L253.395 79.3584L254.703 80.7V80.705L256.418 82.4637L257.074 96.9549L251.059 100.739Z" fill="#105FF9"/>
<path id="Vector_33" d="M243.604 87.4935L242.326 93.5232L243.053 117.853L252.392 86.1318L248.382 88.6743C248.166 88.81 247.946 88.9356 247.715 89.0512C247.367 89.2268 246.988 89.3319 246.599 89.3605C246.21 89.3891 245.819 89.3407 245.449 89.218C245.079 89.0953 244.737 88.9007 244.442 88.6453C244.147 88.3899 243.905 88.0788 243.73 87.7297V87.7297C243.69 87.6493 243.655 87.5689 243.62 87.4835L243.604 87.4935Z" fill="white"/>
<path id="Vector_34" d="M243.664 82.6348L239.498 90.4582L240.882 93.7243L238.621 98.6234L243.038 117.853C243.038 117.853 241.829 94.3474 243.589 87.4836C243.604 87.4937 244.186 84.2226 243.664 82.6348Z" fill="#105FF9"/>
<path id="Vector_35" d="M251.059 100.739L254.482 106.266L245.003 115.878L243.053 117.858L253.355 82.8606L253.395 79.3584L254.703 80.7V80.705L256.418 82.4637L257.074 96.9549L251.059 100.739Z" fill="url(#paint11_linear_612_2)"/>
<path id="Vector_36" d="M243.664 82.6348L239.498 90.4582L240.882 93.7243L238.621 98.6234L243.038 117.853C243.038 117.853 241.829 94.3474 243.589 87.4836C243.604 87.4937 244.186 84.2226 243.664 82.6348Z" fill="url(#paint12_linear_612_2)"/>
<path id="Vector_37" d="M143.033 76.6396L155.34 82.7748L158.668 89.2416L140.907 79.6645L143.033 76.6396Z" fill="#105FF9"/>
<path id="Vector_38" d="M143.033 76.6396L155.34 82.7748L158.668 89.2416L140.907 79.6645L143.033 76.6396Z" fill="url(#paint13_linear_612_2)"/>
<path id="Vector_39" d="M110.137 161.708V259.69H99.3737V215.241H2.29096C0.853261 209.944 0.083609 204.486 0 198.996L0 197.61C0.0852218 184.596 4.09065 171.722 12.4374 161.728L110.137 161.708Z" fill="#105FF9"/>
<path id="Vector_40" d="M121.622 156.076V161.694H12.4375C12.9639 161.061 13.5103 160.433 14.0718 159.825C15.2548 158.548 16.5382 157.312 17.8967 156.076H121.622Z" fill="#105FF9"/>
<path id="Vector_41" d="M62.2367 123.747C61.0035 122.561 59.5297 121.657 58.2263 120.572C57.7651 120.19 57.2788 119.677 57.3691 119.064C57.4269 118.827 57.5526 118.611 57.7306 118.445C57.9087 118.278 58.1315 118.166 58.3717 118.125C58.8592 118.059 59.3548 118.09 59.8305 118.215L57.0232 115.049C56.7625 114.753 56.4818 114.346 56.6723 113.999C56.8628 113.653 57.3992 113.673 57.7701 113.848C58.1064 114.08 58.4967 114.22 58.9031 114.255C57.9005 112.844 56.6271 111.693 55.5594 110.351C54.4916 109.01 53.6344 107.336 53.7948 105.648C53.799 105.402 53.8855 105.165 54.0404 104.975C54.3612 104.653 54.9027 104.789 55.3187 104.975C58.2885 106.27 60.6707 108.628 62.0011 111.587C61.5382 110.146 61.3511 108.631 61.4497 107.12C61.4399 106.945 61.4689 106.769 61.5348 106.605C61.6007 106.442 61.7017 106.295 61.8307 106.176C62.332 105.829 62.9937 106.427 63.2845 106.985C65.2596 110.839 63.881 115.527 64.6881 119.793C64.7934 118.607 65.3455 117.505 66.2321 116.713C66.4775 118.909 66.393 121.129 65.9815 123.3C66.5981 123.571 66.548 124.456 66.3926 125.119C66.192 126.124 65.9414 127.129 65.6406 128.134C64.5377 128.043 64.5177 127.44 64.1718 126.551C63.7355 125.488 63.0755 124.531 62.2367 123.747V123.747Z" fill="#105FF9"/>
<path id="Vector_42" d="M71.0747 110.612C72.1124 109.431 73.3557 108.311 74.8947 107.989C75.3609 108.889 74.8947 109.999 74.248 110.788C73.6013 111.577 72.7992 112.295 72.4734 113.23C73.8161 111.623 75.6327 110.485 77.6619 109.979C78.3822 109.733 79.1699 109.778 79.8576 110.105C79.956 110.157 80.043 110.228 80.1136 110.314C80.1842 110.401 80.2369 110.5 80.2687 110.607C80.389 111.16 79.6871 111.491 79.1357 111.612C75.266 112.634 71.8697 114.969 69.5257 118.22C71.813 116.833 74.4943 116.244 77.1505 116.546C77.6117 116.602 78.1532 116.742 78.3236 117.169C78.5893 117.803 77.8724 118.405 77.2207 118.622C74.7142 119.456 71.576 118.566 69.5508 120.285C70.648 120.164 71.7497 120.47 72.6288 121.139C73.3356 121.677 73.857 122.777 73.2353 123.41C73.0249 123.574 72.7812 123.689 72.5213 123.748C72.2614 123.808 71.9918 123.809 71.7314 123.752C70.2827 123.626 68.498 123.385 67.6658 124.581C67.2097 125.239 67.2448 126.088 67.0743 126.892C66.939 127.53 66.4126 128.661 65.7208 128.038C65.2596 127.621 65.4401 126.164 65.4401 125.611C65.4743 120.104 67.4689 114.791 71.0647 110.627L71.0747 110.612Z" fill="#105FF9"/>
<path id="Vector_43" d="M62.2367 123.747C61.0035 122.561 59.5297 121.657 58.2263 120.572C57.7651 120.19 57.2788 119.677 57.3691 119.064C57.4269 118.827 57.5526 118.611 57.7306 118.445C57.9087 118.278 58.1315 118.166 58.3717 118.125C58.8592 118.059 59.3548 118.09 59.8305 118.215L57.0232 115.049C56.7625 114.753 56.4818 114.346 56.6723 113.999C56.8628 113.653 57.3992 113.673 57.7701 113.848C58.1064 114.08 58.4967 114.22 58.9031 114.255C57.9005 112.844 56.6271 111.693 55.5594 110.351C54.4916 109.01 53.6344 107.336 53.7948 105.648C53.799 105.402 53.8855 105.165 54.0404 104.975C54.3612 104.653 54.9027 104.789 55.3187 104.975C58.2885 106.27 60.6707 108.628 62.0011 111.587C61.5382 110.146 61.3511 108.631 61.4497 107.12C61.4399 106.945 61.4689 106.769 61.5348 106.605C61.6007 106.442 61.7017 106.295 61.8307 106.176C62.332 105.829 62.9937 106.427 63.2845 106.985C65.2596 110.839 63.881 115.527 64.6881 119.793C64.7934 118.607 65.3455 117.505 66.2321 116.713C66.4775 118.909 66.393 121.129 65.9815 123.3C66.5981 123.571 66.548 124.456 66.3926 125.119C66.192 126.124 65.9414 127.129 65.6406 128.134C64.5377 128.043 64.5177 127.44 64.1718 126.551C63.7355 125.488 63.0755 124.531 62.2367 123.747V123.747Z" fill="url(#paint14_linear_612_2)"/>
<path id="Vector_44" d="M71.0747 110.612C72.1124 109.431 73.3557 108.311 74.8947 107.989C75.3609 108.889 74.8947 109.999 74.248 110.788C73.6013 111.577 72.7992 112.295 72.4734 113.23C73.8161 111.623 75.6327 110.485 77.6619 109.979C78.3822 109.733 79.1699 109.778 79.8576 110.105C79.956 110.157 80.043 110.228 80.1136 110.314C80.1842 110.401 80.2369 110.5 80.2687 110.607C80.389 111.16 79.6871 111.491 79.1357 111.612C75.266 112.634 71.8697 114.969 69.5257 118.22C71.813 116.833 74.4943 116.244 77.1505 116.546C77.6117 116.602 78.1532 116.742 78.3236 117.169C78.5893 117.803 77.8724 118.405 77.2207 118.622C74.7142 119.456 71.576 118.566 69.5508 120.285C70.648 120.164 71.7497 120.47 72.6288 121.139C73.3356 121.677 73.857 122.777 73.2353 123.41C73.0249 123.574 72.7812 123.689 72.5213 123.748C72.2614 123.808 71.9918 123.809 71.7314 123.752C70.2827 123.626 68.498 123.385 67.6658 124.581C67.2097 125.239 67.2448 126.088 67.0743 126.892C66.939 127.53 66.4126 128.661 65.7208 128.038C65.2596 127.621 65.4401 126.164 65.4401 125.611C65.4743 120.104 67.4689 114.791 71.0647 110.627L71.0747 110.612Z" fill="url(#paint15_linear_612_2)"/>
<path id="Vector_45" d="M72.1273 156.036L66.3924 156.066H60.7176C48.2351 148.649 62.6627 133.565 62.6627 133.565C62.6627 133.565 63.2342 131.213 62.4872 129.731C62.3154 129.374 62.0459 129.072 61.7102 128.862C59.8704 127.756 62.4371 127.319 62.4371 127.319H70.1371C70.1371 127.319 72.774 127.54 70.7939 128.932C68.8137 130.324 69.9166 133.565 69.9166 133.565C85.3217 150.734 72.1273 156.036 72.1273 156.036Z" fill="white"/>
<path id="Vector_46" opacity="0.51" d="M66.8085 155.613C66.6818 155.774 66.5427 155.926 66.3924 156.065H60.7176C48.2351 148.649 62.6627 133.565 62.6627 133.565C62.6627 133.565 63.2342 131.213 62.4872 129.731C64.9938 129.54 66.2019 132.781 65.866 134.841C65.6104 136.429 65.3647 138.022 65.089 139.609C64.7677 141.094 64.6831 142.62 64.8383 144.132C65.1492 146.141 66.2921 147.915 67.0391 149.804C67.786 151.694 68.0567 154.005 66.8085 155.613Z" fill="url(#paint16_linear_612_2)"/>
<path id="Vector_47" d="M110.137 161.708L54.0507 177.682C44.3232 180.451 35.2778 185.221 27.4909 191.688C19.7041 198.154 13.3464 206.176 8.82297 215.241H2.306C0.863374 209.944 0.0886715 204.487 0 198.996L0 197.61C0.0852218 184.596 4.09065 171.722 12.4374 161.728L110.137 161.708Z" fill="url(#paint17_linear_612_2)"/>
<path id="Vector_48" opacity="0.61" d="M104.517 215.242H99.374V259.61H104.517V215.242Z" fill="url(#paint18_linear_612_2)"/>
<path id="Vector_49" d="M412.293 184.832C411.883 192.858 409.836 200.714 406.278 207.915C404.959 210.539 403.469 213.072 401.816 215.498C396.262 223.678 388.998 230.572 380.761 236.22C374.795 240.26 368.424 243.666 361.752 246.38L348.462 243.922L322.991 239.214C321.743 238.983 320.534 238.837 319.391 238.712C314.694 238.179 311.04 237.918 309.661 233.139C307.952 227.255 309.661 218.251 309.661 212.081C309.661 201.358 310.779 188.59 320.093 183.324C327.823 178.963 337.639 182.043 346.266 180.023C347.098 179.887 347.881 179.541 348.542 179.018C349.545 178.089 349.7 176.581 349.725 175.215C349.941 164.839 346.482 153.201 352.668 144.88C357.4 138.519 366.058 136.765 373.938 136.032C376.364 135.801 378.801 135.695 381.237 135.715C382.42 135.715 383.602 135.766 384.782 135.866C392.948 136.499 400.728 139.127 404.879 145.865C407.1 149.463 407.887 153.734 408.629 157.899C408.965 159.824 409.3 161.763 409.631 163.703C410.734 170.647 411.737 177.757 412.293 184.832Z" fill="#3F3D56"/>
<path id="Vector_50" d="M412.293 184.833C411.883 192.858 409.835 200.715 406.277 207.916C404.959 210.54 403.469 213.073 401.816 215.498C398.763 216.8 395.088 216.785 391.684 216.835C386.326 216.916 380.981 217.376 375.688 218.212C373.311 218.583 370.835 219.081 368.97 220.608C366.509 222.618 365.657 226.05 365.521 229.241C365.386 232.432 365.812 235.662 365.271 238.813C365.143 239.875 364.74 240.885 364.102 241.742C362.824 243.285 360.593 243.561 358.588 243.687C355.199 243.891 351.809 243.975 348.417 243.938C339.886 243.828 331.383 242.933 323.016 241.265C321.567 240.974 319.877 240.456 319.416 239.044C319.383 238.939 319.359 238.832 319.346 238.723C319.27 238.059 319.332 237.387 319.526 236.748L324.113 217.066C324.735 214.393 325.377 211.669 326.795 209.323C329.623 204.625 334.997 202.223 340.035 200.098L353.6 194.364C357.31 192.807 359.831 192.606 359.501 188.229C358.774 178.552 356.748 169.135 356.748 159.367C356.748 156.563 356.879 153.664 358.082 151.142C359.285 148.619 361.446 146.7 363.666 145.012C368.997 141.03 374.906 137.893 381.187 135.711C382.37 135.711 383.551 135.761 384.731 135.862C392.897 136.495 400.678 139.123 404.828 145.861C407.049 149.459 407.836 153.73 408.578 157.895C408.914 159.819 409.25 161.759 409.581 163.699C410.308 168.105 410.974 172.557 411.511 177.019C411.822 179.612 412.072 182.205 412.293 184.833Z" fill="#25233A"/>
<path id="Vector_51" d="M412.293 184.832C411.883 192.858 409.836 200.714 406.278 207.916C404.96 210.539 403.469 213.072 401.816 215.498C398.763 216.799 395.089 216.784 391.685 216.835C386.327 216.916 380.981 217.376 375.688 218.211C373.312 218.583 370.836 219.081 368.971 220.608C368.971 220.608 372.084 203.363 384.782 197.555C397.48 191.746 411.511 177.009 411.511 177.009C411.822 179.612 412.073 182.204 412.293 184.832Z" fill="#3F3D56"/>
<path id="Vector_52" d="M133.613 149.197C133.542 149.137 133.477 149.071 133.412 149.006L133.457 149.046C133.515 149.09 133.567 149.14 133.613 149.197V149.197Z" fill="url(#paint19_linear_612_2)"/>
<path id="Vector_53" opacity="0.24" d="M128.058 141.202C128.058 141.202 128.785 149.287 130.65 151.342C128.272 148.984 126.409 146.155 125.181 143.036C125.181 143.036 132.545 89.272 140.897 79.6748L143.403 81.0064L128.058 141.202Z" fill="white"/>
<path id="Vector_54" opacity="0.24" d="M236.851 97.6182L236.966 103.145L229.768 121.31L207.77 132.867L206.537 131.284L228.399 119.395C228.399 119.395 235.222 105.326 236.851 97.6182Z" fill="white"/>
<path id="Vector_55" opacity="0.24" d="M194.416 141.157L194.045 143.137L169.02 141.268C162.092 140.67 155.294 135.921 154.432 128.982L145.795 98.3315C145.405 97.0738 145.338 95.7377 145.601 94.4473C145.864 93.1569 146.448 91.954 147.299 90.9502C147.299 90.9502 155.365 128.887 158.327 132.283C161.29 135.68 166.935 137.715 166.935 137.715L194.416 141.157Z" fill="white"/>
<path id="Vector_56" opacity="0.24" d="M138.671 200.625L125.211 243.234L123.206 242.37L134.691 197.047C134.691 197.047 130.219 184.717 126.931 175.717C123.773 167.09 128.069 149.996 128.435 148.619L130.154 150.403C130.154 150.403 125.642 170.632 131.448 180.25C137.253 189.867 138.671 200.625 138.671 200.625Z" fill="white"/>
<path id="Vector_57" opacity="0.24" d="M244.261 151.553C243.252 151.296 242.265 150.96 241.308 150.548C240.691 150.283 240.131 149.899 239.662 149.417C239.192 148.935 238.822 148.365 238.573 147.74C238.323 147.114 238.199 146.446 238.207 145.772C238.216 145.099 238.356 144.434 238.621 143.815V143.74C240.04 140.524 240.08 135.871 239.95 131.58C239.654 121.711 237.163 111.044 236.977 106.582C236.857 103.743 237.313 99.7181 238.145 95.6983L239.719 89.0205C239.719 89.0205 238.275 99.8538 237.904 102.823C237.534 105.793 240.912 122.701 242.171 125.153C243.429 127.605 241.223 142.036 241.519 145.463C241.815 148.89 244.261 151.553 244.261 151.553Z" fill="white"/>
<path id="Vector_58" opacity="0.24" d="M272.179 241.26L270.128 242.265C269.893 241.084 265.506 219.352 259.325 203.605C254.708 191.862 252.482 167.929 251.615 155.709L254.157 156.211C254.157 156.211 257.927 187.415 262.067 198.952C266.208 210.488 272.179 241.26 272.179 241.26Z" fill="white"/>
<path id="Vector_59" opacity="0.24" d="M270.935 129.776L264.288 151.236L262.784 150.95L262.488 150.85L268.729 130.751C268.729 130.751 260.558 108.17 259.175 101.215C258.734 98.9136 258.712 96.5509 259.109 94.2412C259.31 93.0415 259.868 91.9306 260.71 91.0544C261.551 90.1783 262.638 89.5779 263.827 89.332C263.827 89.332 259.315 92.4825 260.688 99.4468C262.483 108.396 270.935 129.776 270.935 129.776Z" fill="white"/>
<path id="Vector_60" opacity="0.24" d="M255.741 83.7954L245.349 116.838L243.354 118.863L253.891 83.0719L253.931 79.4893L255.27 80.861V80.866L255.741 83.7954Z" fill="white"/>
<path id="Vector_61" d="M124.735 241.526L121.853 246.782L124.75 248.445L125.828 247.581L130.5 251.892C130.5 251.892 132.169 253.048 136.255 253.048C140.341 253.048 141.148 252.46 141.148 252.46C141.148 252.46 141.148 246.43 136.135 246.707C131.122 246.983 130.776 244.124 130.776 244.124L124.735 241.526Z" fill="#105FF9"/>
<path id="Vector_62" d="M156.627 244.682L156.156 252.45H159.665V249.535L164.428 252.45L176.203 252.42C176.203 252.42 176.203 244.38 170.91 244.802C165.616 245.224 163.48 244.802 163.48 244.802L162.643 243.682L156.627 244.682Z" fill="#105FF9"/>
<path id="Vector_63" d="M277.753 241.139L278.254 248.902H274.745V245.967L270.018 248.912L258.242 248.942C258.242 248.942 258.242 240.902 263.501 241.299C268.76 241.696 270.93 241.299 270.93 241.299L271.757 240.174L277.753 241.139Z" fill="#105FF9"/>
<path id="Vector_64" d="M239.368 241.235L239.869 248.993H236.36V246.058L231.603 249.033L219.827 249.063C219.827 249.063 219.827 241.024 225.086 241.42C230.345 241.817 232.515 241.42 232.515 241.42L233.342 240.295L239.368 241.235Z" fill="#105FF9"/>
<path id="Vector_65" d="M124.735 241.526L121.853 246.782L124.75 248.445L125.828 247.581L130.5 251.892C130.5 251.892 132.169 253.048 136.255 253.048C140.341 253.048 141.148 252.46 141.148 252.46C141.148 252.46 141.148 246.43 136.135 246.707C131.122 246.983 130.776 244.124 130.776 244.124L124.735 241.526Z" fill="url(#paint20_linear_612_2)"/>
<path id="Vector_66" d="M156.627 244.682L156.156 252.45H159.665V249.535L164.428 252.45L176.203 252.42C176.203 252.42 176.203 244.38 170.91 244.802C165.616 245.224 163.48 244.802 163.48 244.802L162.643 243.682L156.627 244.682Z" fill="url(#paint21_linear_612_2)"/>
<path id="Vector_67" d="M277.753 241.139L278.254 248.902H274.745V245.967L270.018 248.912L258.242 248.942C258.242 248.942 258.242 240.902 263.501 241.299C268.76 241.696 270.93 241.299 270.93 241.299L271.757 240.174L277.753 241.139Z" fill="url(#paint22_linear_612_2)"/>
<path id="Vector_68" d="M239.368 241.235L239.869 248.993H236.36V246.058L231.603 249.033L219.827 249.063C219.827 249.063 219.827 241.024 225.086 241.42C230.345 241.817 232.515 241.42 232.515 241.42L233.342 240.295L239.368 241.235Z" fill="url(#paint23_linear_612_2)"/>
</g>
</g>
<defs>
<linearGradient id="paint0_linear_612_2" x1="143.96" y1="115.084" x2="91.006" y2="133.398" gradientUnits="userSpaceOnUse">
<stop stop-opacity="0"/>
<stop offset="0.91" stop-opacity="0.8"/>
<stop offset="1"/>
</linearGradient>
<linearGradient id="paint1_linear_612_2" x1="253.595" y1="126.133" x2="277.343" y2="141.077" gradientUnits="userSpaceOnUse">
<stop stop-opacity="0"/>
<stop offset="0.91" stop-opacity="0.8"/>
<stop offset="1"/>
</linearGradient>
<linearGradient id="paint2_linear_612_2" x1="243.338" y1="83.2677" x2="254.061" y2="83.2677" gradientUnits="userSpaceOnUse">
<stop stop-color="#ECC4D7"/>
<stop offset="0.42" stop-color="#EFD4D1"/>
<stop offset="1" stop-color="#F2EAC9"/>
</linearGradient>
<linearGradient id="paint3_linear_612_2" x1="249.835" y1="75.7562" x2="230.866" y2="107.242" gradientUnits="userSpaceOnUse">
<stop stop-color="#ECC4D7"/>
<stop offset="0.42" stop-color="#EFD4D1"/>
<stop offset="1" stop-color="#F2EAC9"/>
</linearGradient>
<linearGradient id="paint4_linear_612_2" x1="233.688" y1="68.3849" x2="256.397" y2="68.3849" gradientUnits="userSpaceOnUse">
<stop stop-color="#ECC4D7"/>
<stop offset="0.42" stop-color="#EFD4D1"/>
<stop offset="1" stop-color="#F2EAC9"/>
</linearGradient>
<linearGradient id="paint5_linear_612_2" x1="192.987" y1="141.157" x2="204.79" y2="136.568" gradientUnits="userSpaceOnUse">
<stop stop-color="#ECC4D7"/>
<stop offset="0.42" stop-color="#EFD4D1"/>
<stop offset="1" stop-color="#F2EAC9"/>
</linearGradient>
<linearGradient id="paint6_linear_612_2" x1="146.426" y1="149.227" x2="167.398" y2="98.6171" gradientUnits="userSpaceOnUse">
<stop stop-opacity="0"/>
<stop offset="0.91" stop-opacity="0.8"/>
<stop offset="1"/>
</linearGradient>
<linearGradient id="paint7_linear_612_2" x1="158.101" y1="66.5858" x2="164.315" y2="68.5121" gradientUnits="userSpaceOnUse">
<stop stop-color="#ECC4D7"/>
<stop offset="0.42" stop-color="#EFD4D1"/>
<stop offset="1" stop-color="#F2EAC9"/>
</linearGradient>
<linearGradient id="paint8_linear_612_2" x1="207.109" y1="132.826" x2="195.272" y2="160.678" gradientUnits="userSpaceOnUse">
<stop stop-color="#ECC4D7"/>
<stop offset="0.42" stop-color="#EFD4D1"/>
<stop offset="1" stop-color="#F2EAC9"/>
</linearGradient>
<linearGradient id="paint9_linear_612_2" x1="201.73" y1="140.489" x2="199.001" y2="150.379" gradientUnits="userSpaceOnUse">
<stop stop-color="#ECC4D7"/>
<stop offset="0.42" stop-color="#EFD4D1"/>
<stop offset="1" stop-color="#F2EAC9"/>
</linearGradient>
<linearGradient id="paint10_linear_612_2" x1="256.783" y1="156.623" x2="270.935" y2="156.623" gradientUnits="userSpaceOnUse">
<stop stop-color="#ECC4D7"/>
<stop offset="0.42" stop-color="#EFD4D1"/>
<stop offset="1" stop-color="#F2EAC9"/>
</linearGradient>
<linearGradient id="paint11_linear_612_2" x1="250.196" y1="82.5491" x2="249.491" y2="213.131" gradientUnits="userSpaceOnUse">
<stop stop-opacity="0"/>
<stop offset="0.91" stop-opacity="0.8"/>
<stop offset="1"/>
</linearGradient>
<linearGradient id="paint12_linear_612_2" x1="241.298" y1="82.4991" x2="240.593" y2="213.081" gradientUnits="userSpaceOnUse">
<stop stop-opacity="0"/>
<stop offset="0.91" stop-opacity="0.8"/>
<stop offset="1"/>
</linearGradient>
<linearGradient id="paint13_linear_612_2" x1="150.648" y1="76.6447" x2="148.281" y2="98.0538" gradientUnits="userSpaceOnUse">
<stop stop-opacity="0"/>
<stop offset="0.44" stop-opacity="0.35"/>
<stop offset="0.91" stop-opacity="0.8"/>
<stop offset="1"/>
</linearGradient>
<linearGradient id="paint14_linear_612_2" x1="62.337" y1="116.632" x2="72.0312" y2="119.634" gradientUnits="userSpaceOnUse">
<stop stop-opacity="0"/>
<stop offset="0.91" stop-opacity="0.8"/>
<stop offset="1"/>
</linearGradient>
<linearGradient id="paint15_linear_612_2" x1="72.5335" y1="118.074" x2="66.2321" y2="118.169" gradientUnits="userSpaceOnUse">
<stop stop-opacity="0"/>
<stop offset="0.91" stop-opacity="0.8"/>
<stop offset="1"/>
</linearGradient>
<linearGradient id="paint16_linear_612_2" x1="76.3684" y1="134.238" x2="42.5767" y2="158.639" gradientUnits="userSpaceOnUse">
<stop stop-color="white" stop-opacity="0"/>
<stop offset="1" stop-color="#3F3D56"/>
</linearGradient>
<linearGradient id="paint17_linear_612_2" x1="55.5446" y1="187.053" x2="15.3034" y2="103.087" gradientUnits="userSpaceOnUse">
<stop stop-opacity="0"/>
<stop offset="0.91" stop-opacity="0.8"/>
<stop offset="1"/>
</linearGradient>
<linearGradient id="paint18_linear_612_2" x1="-61.1139" y1="172.05" x2="191.62" y2="272.908" gradientUnits="userSpaceOnUse">
<stop offset="0.17" stop-color="#00272E"/>
<stop offset="1" stop-color="#69B9EB" stop-opacity="0"/>
</linearGradient>
<linearGradient id="paint19_linear_612_2" x1="133.412" y1="149.101" x2="133.613" y2="149.101" gradientUnits="userSpaceOnUse">
<stop stop-color="#68E1FD"/>
<stop offset="1" stop-color="#69B9EB"/>
</linearGradient>
<linearGradient id="paint20_linear_612_2" x1="144.607" y1="241.838" x2="124.163" y2="250.842" gradientUnits="userSpaceOnUse">
<stop stop-opacity="0"/>
<stop offset="0.91" stop-opacity="0.8"/>
<stop offset="1"/>
</linearGradient>
<linearGradient id="paint21_linear_612_2" x1="177.011" y1="241.431" x2="159.133" y2="253.381" gradientUnits="userSpaceOnUse">
<stop stop-opacity="0"/>
<stop offset="0.91" stop-opacity="0.8"/>
<stop offset="1"/>
</linearGradient>
<linearGradient id="paint22_linear_612_2" x1="259.806" y1="238.827" x2="274.183" y2="249.679" gradientUnits="userSpaceOnUse">
<stop stop-opacity="0"/>
<stop offset="0.91" stop-opacity="0.8"/>
<stop offset="1"/>
</linearGradient>
<linearGradient id="paint23_linear_612_2" x1="215.817" y1="238.149" x2="243.816" y2="252.302" gradientUnits="userSpaceOnUse">
<stop stop-opacity="0"/>
<stop offset="0.91" stop-opacity="0.8"/>
<stop offset="1"/>
</linearGradient>
<clipPath id="clip0_612_2">
<rect width="1366" height="941" fill="white" transform="translate(-666 -469)"/>
</clipPath>
<clipPath id="clip1_612_2">
<rect width="413" height="312" fill="white" transform="translate(0 -26)"/>
</clipPath>
</defs>
</svg>
