<svg width="13" height="10" viewBox="0 0 13 10" fill="none" xmlns="http://www.w3.org/2000/svg">
<path d="M1.875 4.375C2.56445 4.375 3.125 3.81445 3.125 3.125C3.125 2.43555 2.56445 1.875 1.875 1.875C1.18555 1.875 0.625 2.43555 0.625 3.125C0.625 3.81445 1.18555 4.375 1.875 4.375ZM10.625 4.375C11.3145 4.375 11.875 3.81445 11.875 3.125C11.875 2.43555 11.3145 1.875 10.625 1.875C9.93555 1.875 9.375 2.43555 9.375 3.125C9.375 3.81445 9.93555 4.375 10.625 4.375ZM11.25 5H10C9.65625 5 9.3457 5.13867 9.11914 5.36328C9.90625 5.79492 10.4648 6.57422 10.5859 7.5H11.875C12.2207 7.5 12.5 7.2207 12.5 6.875V6.25C12.5 5.56055 11.9395 5 11.25 5ZM6.25 5C7.45898 5 8.4375 4.02148 8.4375 2.8125C8.4375 1.60352 7.45898 0.625 6.25 0.625C5.04102 0.625 4.0625 1.60352 4.0625 2.8125C4.0625 4.02148 5.04102 5 6.25 5ZM7.75 5.625H7.58789C7.18164 5.82031 6.73047 5.9375 6.25 5.9375C5.76953 5.9375 5.32031 5.82031 4.91211 5.625H4.75C3.50781 5.625 2.5 6.63281 2.5 7.875V8.4375C2.5 8.95508 2.91992 9.375 3.4375 9.375H9.0625C9.58008 9.375 10 8.95508 10 8.4375V7.875C10 6.63281 8.99219 5.625 7.75 5.625ZM3.38086 5.36328C3.1543 5.13867 2.84375 5 2.5 5H1.25C0.560547 5 0 5.56055 0 6.25V6.875C0 7.2207 0.279297 7.5 0.625 7.5H1.91211C2.03516 6.57422 2.59375 5.79492 3.38086 5.36328Z" fill="#2D78FB"/>
</svg>
