<svg width="9" height="10" viewBox="0 0 9 10" fill="none" xmlns="http://www.w3.org/2000/svg">
<path d="M8.51562 9.375H8.125V0.46875C8.125 0.209863 7.91514 0 7.65625 0H1.09375C0.834863 0 0.625 0.209863 0.625 0.46875V9.375H0.234375C0.104941 9.375 0 9.47994 0 9.60938V10H8.75V9.60938C8.75 9.47994 8.64506 9.375 8.51562 9.375ZM2.5 1.48438C2.5 1.35494 2.60494 1.25 2.73438 1.25H3.51562C3.64506 1.25 3.75 1.35494 3.75 1.48438V2.26562C3.75 2.39506 3.64506 2.5 3.51562 2.5H2.73438C2.60494 2.5 2.5 2.39506 2.5 2.26562V1.48438ZM2.5 3.35938C2.5 3.22994 2.60494 3.125 2.73438 3.125H3.51562C3.64506 3.125 3.75 3.22994 3.75 3.35938V4.14062C3.75 4.27006 3.64506 4.375 3.51562 4.375H2.73438C2.60494 4.375 2.5 4.27006 2.5 4.14062V3.35938ZM3.51562 6.25H2.73438C2.60494 6.25 2.5 6.14506 2.5 6.01562V5.23438C2.5 5.10494 2.60494 5 2.73438 5H3.51562C3.64506 5 3.75 5.10494 3.75 5.23438V6.01562C3.75 6.14506 3.64506 6.25 3.51562 6.25ZM5 9.375H3.75V7.73438C3.75 7.60494 3.85494 7.5 3.98438 7.5H4.76562C4.89506 7.5 5 7.60494 5 7.73438V9.375ZM6.25 6.01562C6.25 6.14506 6.14506 6.25 6.01562 6.25H5.23438C5.10494 6.25 5 6.14506 5 6.01562V5.23438C5 5.10494 5.10494 5 5.23438 5H6.01562C6.14506 5 6.25 5.10494 6.25 5.23438V6.01562ZM6.25 4.14062C6.25 4.27006 6.14506 4.375 6.01562 4.375H5.23438C5.10494 4.375 5 4.27006 5 4.14062V3.35938C5 3.22994 5.10494 3.125 5.23438 3.125H6.01562C6.14506 3.125 6.25 3.22994 6.25 3.35938V4.14062ZM6.25 2.26562C6.25 2.39506 6.14506 2.5 6.01562 2.5H5.23438C5.10494 2.5 5 2.39506 5 2.26562V1.48438C5 1.35494 5.10494 1.25 5.23438 1.25H6.01562C6.14506 1.25 6.25 1.35494 6.25 1.48438V2.26562Z" fill="#2D78FB"/>
</svg>
