<svg width="11" height="12" viewBox="0 0 11 12" fill="none" xmlns="http://www.w3.org/2000/svg">
<path d="M6.03535 10.4324L5.51504 10.9527C5.29473 11.173 4.93848 11.173 4.72051 10.9527L0.164258 6.39883C-0.0560547 6.17852 -0.0560547 5.82227 0.164258 5.6043L4.72051 1.04805C4.94082 0.827734 5.29707 0.827734 5.51504 1.04805L6.03535 1.56836C6.25801 1.79102 6.25332 2.1543 6.02598 2.37227L3.20176 5.06289H9.9377C10.2494 5.06289 10.5002 5.31367 10.5002 5.62539V6.37539C10.5002 6.68711 10.2494 6.93789 9.9377 6.93789H3.20176L6.02598 9.62852C6.25566 9.84648 6.26035 10.2098 6.03535 10.4324Z" fill="#105FF9"/>
</svg>
